<svg id="Component_10_1" data-name="Component 10 – 1" xmlns="http://www.w3.org/2000/svg" width="32" height="32" viewBox="0 0 32 32">
  <path id="Combined_Shape" data-name="Combined Shape" d="M16,32A16,16,0,0,1,4.686,4.686,16,16,0,1,1,27.314,27.314,15.9,15.9,0,0,1,16,32Zm0-21.866a49.861,49.861,0,0,0-6.668.366,2.166,2.166,0,0,0-1.508,1.549,23.488,23.488,0,0,0-.357,4.218,23.48,23.48,0,0,0,.357,4.217,2.166,2.166,0,0,0,1.508,1.55A49.983,49.983,0,0,0,16,22.4a49.983,49.983,0,0,0,6.668-.365,2.167,2.167,0,0,0,1.508-1.55,23.538,23.538,0,0,0,.356-4.217,23.546,23.546,0,0,0-.356-4.218A2.166,2.166,0,0,0,22.668,10.5,49.861,49.861,0,0,0,16,10.134Z" fill="#54c1a7"/>
  <path id="Fill_2" data-name="Fill 2" d="M0,0,4.267,2.667,0,5.333Z" transform="translate(14.4 13.866)" fill="#54c1a7"/>
</svg>
