<svg id="Twitter" xmlns="http://www.w3.org/2000/svg" width="32" height="32" viewBox="0 0 32 32">
  <path id="Combined_Shape" data-name="Combined Shape" d="M16,32A16,16,0,0,1,4.686,4.686,16,16,0,1,1,27.314,27.314,15.9,15.9,0,0,1,16,32ZM8.513,14.148c-.017,0-.027,0-.031.009a4.032,4.032,0,0,0,.4,1.514,3.61,3.61,0,0,0,1.534,1.446l.548.26-.649.012c-.4,0-.547.005-.592.065-.028.037-.015.1.01.184a3.381,3.381,0,0,0,2.093,1.853l.694.237-.6.362a6.346,6.346,0,0,1-3,.836,3.471,3.471,0,0,0-.918.09,8.433,8.433,0,0,0,2.16.995,9.044,9.044,0,0,0,2.667.39A9.318,9.318,0,0,0,17.5,21.173a9.775,9.775,0,0,0,3.727-4.384A11.7,11.7,0,0,0,21.99,13.4c0-.524.037-.591.661-1.209a7.4,7.4,0,0,0,.783-.87c.041-.079.065-.129.052-.151s-.017-.013-.036-.013a2.492,2.492,0,0,0-.486.142,3.136,3.136,0,0,1-.784.218c-.05,0-.079-.012-.09-.035-.024-.055.056-.178.259-.4a3.285,3.285,0,0,0,.76-1.209c0-.007-.006-.01-.019-.01a1.127,1.127,0,0,0-.34.134,6.217,6.217,0,0,1-.985.384l-.6.192-.549-.373a4.464,4.464,0,0,0-.951-.5,3.478,3.478,0,0,0-.895-.106,3.4,3.4,0,0,0-1.064.151,3.228,3.228,0,0,0-2.183,3.254l.034.554-.56-.068a9.123,9.123,0,0,1-5.327-2.621l-.739-.734-.19.542a3.269,3.269,0,0,0,.694,3.344c.2.215.285.34.262.394-.01.022-.037.033-.082.033a2.268,2.268,0,0,1-.605-.167A2.307,2.307,0,0,0,8.513,14.148Z" fill="#54c1a7"/>
</svg>
