<svg id="Instagram" xmlns="http://www.w3.org/2000/svg" width="32" height="32" viewBox="0 0 32 32">
  <path id="Combined_Shape" data-name="Combined Shape" d="M16,32A16,16,0,0,1,4.686,4.686,16,16,0,1,1,27.314,27.314,15.9,15.9,0,0,1,16,32ZM16,7.466l-.5,0c-1.826,0-2.155.011-3.017.05a6.313,6.313,0,0,0-2.071.4,4.367,4.367,0,0,0-2.5,2.5,6.266,6.266,0,0,0-.4,2.071c-.042.929-.052,1.235-.052,3.519s.01,2.589.052,3.518a6.313,6.313,0,0,0,.4,2.071,4.374,4.374,0,0,0,2.5,2.5,6.313,6.313,0,0,0,2.071.4c.929.042,1.235.052,3.519.052s2.589-.01,3.517-.052a6.318,6.318,0,0,0,2.073-.4,4.38,4.38,0,0,0,2.5-2.5,6.36,6.36,0,0,0,.4-2.071c.042-.913.051-1.216.051-3.518s-.01-2.606-.051-3.519a6.36,6.36,0,0,0-.4-2.071,4.374,4.374,0,0,0-2.5-2.5,6.329,6.329,0,0,0-2.073-.4C18.588,7.476,18.282,7.466,16,7.466Z" fill="#54c1a7"/>
  <path id="Combined_Shape-2" data-name="Combined Shape" d="M7,13.99c-2.274,0-2.545-.009-3.448-.05a4.712,4.712,0,0,1-1.585-.294,2.619,2.619,0,0,1-.981-.638,2.645,2.645,0,0,1-.639-.98A4.713,4.713,0,0,1,.05,10.442C.009,9.555,0,9.287,0,6.994s.009-2.56.05-3.447A4.713,4.713,0,0,1,.343,1.962,2.647,2.647,0,0,1,.982.981,2.633,2.633,0,0,1,1.963.342,4.729,4.729,0,0,1,3.548.048C4.345.012,4.645,0,6.23,0L7,0c2.293,0,2.561.009,3.448.05a4.763,4.763,0,0,1,1.585.293,2.636,2.636,0,0,1,.98.639,2.633,2.633,0,0,1,.639.981,4.711,4.711,0,0,1,.293,1.584c.042.9.05,1.174.05,3.447s-.009,2.544-.05,3.447a4.71,4.71,0,0,1-.293,1.584,2.838,2.838,0,0,1-1.619,1.619,4.713,4.713,0,0,1-1.585.293C9.54,13.981,9.27,13.99,7,13.99ZM7,2.615A4.382,4.382,0,1,0,11.377,7,4.387,4.387,0,0,0,7,2.615Zm4.555-1.2a1.024,1.024,0,1,0,1.024,1.024A1.025,1.025,0,0,0,11.551,1.418Z" transform="translate(9.005 9.002)" fill="#54c1a7"/>
  <path id="Shape" d="M5.689,2.844A2.844,2.844,0,1,1,2.844,0h0A2.844,2.844,0,0,1,5.689,2.844Z" transform="translate(13.156 13.155)" fill="#54c1a7"/>
</svg>
